<?xml version="1.0" encoding="UTF-8" standalone="no"?>
<svg xmlns:xlink="http://www.w3.org/1999/xlink" width="246px" height="60px" viewBox="0 0 246 60" version="1.1" xmlns="http://www.w3.org/2000/svg">
    <!-- Generator: Sketch 3.6 (26304) - http://www.bohemiancoding.com/sketch -->
    <title>pp_fc_hl</title>
    <desc>Created with Sketch.</desc>
    <defs>
        <path id="path-1" d="M0.0363636364,60 L245.244848,60 L245.244848,0.497575758 L0.0363636364,0.497575758 L0.0363636364,60 L0.0363636364,60 Z"></path>
    </defs>
    <g id="Page-1" stroke="none" stroke-width="1" fill="none" fill-rule="evenodd">
        <g id="pp_fc_hl">
            <g id="pp_h_rgb">
                <path
                    d="M190.421818,26.4321212 C189.684848,31.2727273 185.987879,31.2727273 182.412121,31.2727273 L180.377576,31.2727273 L181.804848,22.2351515 C181.890909,21.6890909 182.361818,21.2866667 182.915152,21.2866667 L183.847879,21.2866667 C186.281212,21.2866667 188.580606,21.2866667 189.766061,22.6733333 C190.475152,23.5030303 190.689697,24.7327273 190.421818,26.4321212 L190.421818,26.4321212 Z M188.865455,13.8036364 L175.38,13.8036364 C174.458182,13.8036364 173.673333,14.4745455 173.529697,15.3854545 L168.07697,49.9630303 C167.969091,50.6448485 168.496364,51.2618182 169.187273,51.2618182 L176.106061,51.2618182 C176.751515,51.2618182 177.301212,50.7921212 177.401212,50.1545455 L178.947879,40.3521212 C179.091515,39.4412121 179.876364,38.770303 180.798182,38.770303 L185.065455,38.770303 C193.947879,38.770303 199.073939,34.4715152 200.413939,25.9521212 C201.01697,22.2260606 200.438182,19.2981818 198.693333,17.2484848 C196.775758,14.9951515 193.37697,13.8036364 188.865455,13.8036364 L188.865455,13.8036364 Z"
                    id="Fill-1" fill="#2790C3"></path>
                <path
                    d="M94.2418182,26.4321212 C93.5048485,31.2727273 89.8078788,31.2727273 86.2327273,31.2727273 L84.1981818,31.2727273 L85.6248485,22.2351515 C85.7115152,21.6890909 86.1824242,21.2866667 86.7351515,21.2866667 L87.6678788,21.2866667 C90.1018182,21.2866667 92.4012121,21.2866667 93.5860606,22.6733333 C94.2957576,23.5030303 94.510303,24.7327273 94.2418182,26.4321212 L94.2418182,26.4321212 Z M92.6860606,13.8036364 L79.2006061,13.8036364 C78.2787879,13.8036364 77.4939394,14.4745455 77.350303,15.3854545 L71.8969697,49.9630303 C71.789697,50.6448485 72.3169697,51.2618182 73.0072727,51.2618182 L79.4460606,51.2618182 C80.3678788,51.2618182 81.1533333,50.5909091 81.2969697,49.6806061 L82.7684848,40.3521212 C82.9115152,39.4412121 83.6969697,38.770303 84.6187879,38.770303 L88.8860606,38.770303 C97.7678788,38.770303 102.894545,34.4715152 104.234545,25.9521212 C104.837576,22.2260606 104.258788,19.2981818 102.513939,17.2484848 C100.595758,14.9951515 97.1969697,13.8036364 92.6860606,13.8036364 L92.6860606,13.8036364 Z"
                    id="Fill-2" fill="#27346A"></path>
                <path
                    d="M123.992121,38.8454545 C123.368485,42.5351515 120.439394,45.0121212 116.703636,45.0121212 C114.830909,45.0121212 113.331515,44.409697 112.367879,43.2690909 C111.412727,42.1381818 111.053333,40.5272727 111.355758,38.7333333 C111.937576,35.0769697 114.913333,32.52 118.592121,32.52 C120.426061,32.52 121.914545,33.1284848 122.897576,34.2793939 C123.886667,35.4387879 124.275152,37.0606061 123.992121,38.8454545 L123.992121,38.8454545 Z M132.990909,26.2775758 L126.533939,26.2775758 C125.980606,26.2775758 125.509697,26.6793939 125.423636,27.2266667 L125.139394,29.0321212 L124.687879,28.3775758 C123.289697,26.3478788 120.173333,25.669697 117.061212,25.669697 C109.927273,25.669697 103.833333,31.0757576 102.647273,38.6581818 C102.029697,42.4406061 102.906061,46.0551515 105.050909,48.5781818 C107.021212,50.8963636 109.833333,51.8612121 113.183636,51.8612121 C118.933939,51.8612121 122.12303,48.1672727 122.12303,48.1672727 L121.834545,49.9618182 C121.726667,50.6442424 122.253939,51.2618182 122.944848,51.2618182 L128.76,51.2618182 C129.681818,51.2618182 130.466667,50.5915152 130.610303,49.6806061 L134.101212,27.5763636 C134.209091,26.8939394 133.681818,26.2775758 132.990909,26.2775758 L132.990909,26.2775758 Z"
                    id="Fill-3" fill="#27346A"></path>
                <path
                    d="M220.171515,38.8454545 C219.547879,42.5351515 216.619394,45.0121212 212.883636,45.0121212 C211.010303,45.0121212 209.511515,44.409697 208.547273,43.2690909 C207.592121,42.1381818 207.232727,40.5272727 207.535758,38.7333333 C208.11697,35.0769697 211.092727,32.52 214.772121,32.52 C216.605455,32.52 218.094545,33.1284848 219.07697,34.2793939 C220.066061,35.4387879 220.454545,37.0606061 220.171515,38.8454545 L220.171515,38.8454545 Z M229.170303,26.2775758 L222.713333,26.2775758 C222.16,26.2775758 221.689091,26.6793939 221.60303,27.2266667 L221.318788,29.0321212 L220.867879,28.3775758 C219.469091,26.3478788 216.352727,25.669697 213.240606,25.669697 C206.107273,25.669697 200.012727,31.0757576 198.826667,38.6581818 C198.209697,42.4406061 199.086061,46.0551515 201.230303,48.5781818 C203.201212,50.8963636 206.012727,51.8612121 209.36303,51.8612121 C215.113333,51.8612121 218.302424,48.1672727 218.302424,48.1672727 L218.014545,49.9618182 C217.906061,50.6442424 218.433333,51.2618182 219.124848,51.2618182 L224.939394,51.2618182 C225.861212,51.2618182 226.646061,50.5915152 226.790303,49.6806061 L230.280606,27.5763636 C230.388485,26.8939394 229.861212,26.2775758 229.170303,26.2775758 L229.170303,26.2775758 Z"
                    id="Fill-4" fill="#2790C3"></path>
                <g id="Group-10">
                    <mask id="mask-2" fill="white">
                        <use xlink:href="#path-1"></use>
                    </mask>
                    <g id="Clip-6"></g>
                    <path
                        d="M167.381818,26.2775758 L160.891515,26.2775758 C160.270909,26.2775758 159.690303,26.5854545 159.341818,27.0987879 L150.389091,40.2848485 L146.594545,27.6139394 C146.357576,26.8212121 145.627879,26.2775758 144.8,26.2775758 L138.42,26.2775758 C137.649697,26.2775758 137.107273,27.0351515 137.355758,27.7642424 L144.502424,48.7412121 L137.780606,58.2260606 C137.252727,58.970303 137.785455,60 138.697576,60 L145.181818,60 C145.796364,60 146.371515,59.6987879 146.721818,59.1933333 L168.306061,28.0424242 C168.822424,27.2969697 168.289091,26.2775758 167.381818,26.2775758"
                        id="Fill-5" fill="#27346A" mask="url(#mask-2)"></path>
                    <path
                        d="M236.781212,14.7533333 L231.246667,49.9630303 C231.139394,50.6454545 231.666667,51.2618182 232.35697,51.2618182 L237.923636,51.2618182 C238.845455,51.2618182 239.630303,50.5909091 239.773939,49.6806061 L245.230909,15.1030303 C245.338788,14.4206061 244.811515,13.8036364 244.120606,13.8036364 L237.891515,13.8036364 C237.338182,13.8036364 236.867273,14.2066667 236.781212,14.7533333"
                        id="Fill-7" fill="#2790C3" mask="url(#mask-2)"></path>
                    <path
                        d="M25.5466667,57.5484848 L27.3593939,46.0539394 L27.4763636,45.4169697 C27.5636364,44.8630303 27.8472727,44.3563636 28.2745455,43.9915152 C28.7018182,43.6266667 29.2466667,43.4254545 29.8084848,43.4254545 L31.2478788,43.4254545 C33.6472727,43.4254545 35.8515152,43.1690909 37.8,42.6636364 C39.8787879,42.1248485 41.7278788,41.2854545 43.2951515,40.1709091 C44.9569697,38.9890909 46.3527273,37.4612121 47.4442424,35.6309091 C48.5957576,33.7 49.4412121,31.3751515 49.9575758,28.7218182 C50.4139394,26.3787879 50.4993939,24.2812121 50.2127273,22.4866667 C49.9090909,20.5909091 49.1787879,18.9733333 48.0424242,17.6775758 C47.3533333,16.8927273 46.4715152,16.2127273 45.4218182,15.6563636 L45.3969697,15.6430303 L45.3963636,15.6127273 C45.7630303,13.2739394 45.7490909,11.3230303 45.3545455,9.64363636 C44.9581818,7.96060606 44.1557576,6.44606061 42.8993939,5.01454545 C40.2963636,2.04848485 35.5618182,0.544242424 28.8278788,0.544242424 L10.3339394,0.544242424 C9.71575758,0.544242424 9.11575758,0.765454545 8.64545455,1.16727273 C8.17515152,1.56909091 7.86363636,2.12727273 7.76666667,2.73818182 L0.0660606061,51.570303 C-0.00424242424,52.0157576 0.123636364,52.4684848 0.416969697,52.810303 C0.71030303,53.1539394 1.1369697,53.3509091 1.58787879,53.3509091 L13.0612121,53.3509091 L13.0509091,53.4054545 L12.2630303,58.4018182 C12.2024242,58.790303 12.3139394,59.1842424 12.5690909,59.4824242 C12.8242424,59.7812121 13.1957576,59.9533333 13.5884848,59.9533333 L23.2115152,59.9533333 C23.7515152,59.9533333 24.2745455,59.76 24.6848485,59.4090909 C25.0951515,59.0581818 25.3678788,58.5715152 25.4521212,58.0387879 L25.5466667,57.5484848"
                        id="Fill-8" fill="#27346A" mask="url(#mask-2)"></path>
                    <path
                        d="M18.9539394,15.6763636 C19.0757576,14.9024242 19.5721212,14.2690909 20.2406061,13.9484848 C20.5448485,13.8030303 20.8842424,13.7218182 21.24,13.7218182 L35.7363636,13.7218182 C37.4539394,13.7218182 39.0551515,13.8345455 40.5193939,14.070303 C40.9375758,14.1375758 41.3442424,14.2151515 41.74,14.3030303 C42.1357576,14.3909091 42.5193939,14.4884848 42.8909091,14.5975758 C43.0769697,14.6515152 43.2593939,14.7084848 43.4393939,14.7684848 C44.1581818,15.0072727 44.8272727,15.2884848 45.4430303,15.6145455 C46.1690909,10.9860606 45.4381818,7.83636364 42.9345455,4.98363636 C40.1781818,1.8430303 35.1987879,0.497575758 28.8278788,0.497575758 L10.3339394,0.497575758 C9.03212121,0.497575758 7.92363636,1.44484848 7.72060606,2.73090909 L0.02,51.5630303 C-0.132121212,52.5266667 0.612727273,53.3975758 1.58787879,53.3975758 L13.0048485,53.3975758 L18.9539394,15.6763636"
                        id="Fill-9" fill="#27346A" mask="url(#mask-2)"></path>
                </g>
                <path
                    d="M45.4430303,15.6145455 L45.4430303,15.6145455 C45.3878788,15.9678788 45.3266667,16.3272727 45.2539394,16.6975758 C42.8157576,29.2193939 34.4715152,33.5484848 23.8145455,33.5484848 L18.3878788,33.5484848 C17.0860606,33.5484848 15.9866667,34.4963636 15.7836364,35.7824242 L12.2169697,58.3951515 C12.0842424,59.2375758 12.7357576,60 13.5884848,60 L23.2121212,60 C24.3509091,60 25.3206061,59.1715152 25.4981818,58.0460606 L25.5927273,57.5569697 L27.4054545,46.0612121 L27.5224242,45.4260606 C27.7,44.3006061 28.669697,43.4721212 29.8084848,43.4721212 L31.2478788,43.4721212 C40.5709091,43.4721212 47.8709091,39.6842424 50.0042424,28.730303 C50.8951515,24.1533333 50.4345455,20.3327273 48.0775758,17.6466667 C47.3648485,16.8345455 46.4775758,16.1624242 45.4430303,15.6145455"
                    id="Fill-11" fill="#2790C3"></path>
                <path
                    d="M42.8909091,14.5975758 C42.5193939,14.4884848 42.1357576,14.3909091 41.74,14.3030303 C41.3442424,14.2151515 40.9375758,14.1375758 40.5193939,14.070303 C39.0551515,13.8345455 37.4539394,13.7218182 35.7363636,13.7218182 L21.24,13.7218182 C20.8842424,13.7218182 20.5448485,13.8030303 20.2406061,13.9484848 C19.5721212,14.2690909 19.0757576,14.9024242 18.9539394,15.6763636 L15.8727273,35.2121212 L15.7836364,35.7824242 C15.9866667,34.4963636 17.0860606,33.5484848 18.3878788,33.5484848 L23.8145455,33.5484848 C34.4715152,33.5484848 42.8157576,29.2193939 45.2539394,16.6975758 C45.3266667,16.3272727 45.3878788,15.9678788 45.4430303,15.6145455 C44.8272727,15.2884848 44.1581818,15.0072727 43.4393939,14.7684848 C43.2593939,14.7084848 43.0769697,14.6515152 42.8909091,14.5975758"
                    id="Fill-12" fill="#1F264F"></path>
            </g>
        </g>
    </g>
</svg>